{"asset":{"version":"2.0","generator":"THREE.GLTFExporter"},"scenes":[{"nodes":[0],"name":"AuxScene"}],"scene":0,"nodes":[{"mesh":0}],"bufferViews":[{"buffer":0,"byteOffset":0,"byteLength":5580,"target":34962,"byteStride":12},{"buffer":0,"byteOffset":5580,"byteLength":5580,"target":34962,"byteStride":12}],"buffers":[{"byteLength":11160,"uri":"data:application/octet-stream;base64,"}],"accessors":[{"bufferView":0,"componentType":5126,"count":465,"max":[8.260140419006348,7.332228183746338,3.502208948135376],"min":[-8.339859962463379,-0.26777198910713196,-12.69779109954834],"type":"VEC3"},{"bufferView":1,"componentType":5126,"count":465,"max":[0.7378649115562439,1,0.49236732721328735],"min":[-0.8581161499023438,0.07647158950567245,-0.8411910533905029],"type":"VEC3"}],"materials":[{"pbrMetallicRoughness":{"baseColorFactor":[0.5019607843137255,0.5019607843137255,0.5019607843137255,1],"metallicFactor":0,"roughnessFactor":1}}],"meshes":[{"primitives":[{"mode":4,"attributes":{"POSITION":0,"NORMAL":1},"material":0}]}]}